<svg xmlns="http://www.w3.org/2000/svg" width="52.001" height="37" viewBox="0 0 52.001 37">
  <defs>
    <style>
      .cls-1 {
        fill: #fff;
      }
    </style>
  </defs>
  <g id="Icon_feather-menu" data-name="Icon feather-menu" transform="translate(-1 -5.5)">
    <path id="Path_1" data-name="Path 1" class="cls-1" d="M49.5,21.5H4.5a3.5,3.5,0,0,1,0-7h45a3.5,3.5,0,0,1,0,7Z" transform="translate(0 6)"/>
    <path id="Path_2" data-name="Path 2" class="cls-1" d="M49.5,12.5H4.5a3.5,3.5,0,0,1,0-7h45a3.5,3.5,0,0,1,0,7Z"/>
    <path id="Path_3" data-name="Path 3" class="cls-1" d="M49.5,30.5H4.5a3.5,3.5,0,0,1,0-7h45a3.5,3.5,0,0,1,0,7Z" transform="translate(0 12)"/>
  </g>
</svg>
