<svg id="Logo" xmlns="http://www.w3.org/2000/svg" xmlns:xlink="http://www.w3.org/1999/xlink" viewBox="0 0 500 500"><defs><style>.cls-1{fill:none;}.cls-2{fill:#eee;}.cls-3{fill:#cf5651;}.cls-4{fill:#f48375;}.cls-5{fill:#b34343;}.cls-6{clip-path:url(#clip-path);}.cls-7{clip-path:url(#clip-path-2);}.cls-8{fill:#d05651;}.cls-9{fill:#f08369;}.cls-10{clip-path:url(#clip-path-3);}.cls-11{clip-path:url(#clip-path-4);}.cls-12{fill:#583d72;}.cls-13{fill:#9f5f80;}</style><clipPath id="clip-path"><polygon class="cls-1" points="182.38 308.35 348.23 392.34 393.36 245.65 182.38 308.35"/></clipPath><clipPath id="clip-path-2"><rect class="cls-1" x="276.81" y="264.83" width="119.88" height="119.88"/></clipPath><clipPath id="clip-path-3"><rect class="cls-1" x="276.81" y="384.71" width="119.88" height="119.88"/></clipPath><clipPath id="clip-path-4"><rect class="cls-1" x="156.93" y="264.83" width="119.88" height="119.88"/></clipPath></defs><circle id="Circle" class="cls-2" cx="250" cy="250" r="249.51"/><g id="Accents"><path class="cls-3" d="M191.11,451.16H191l-35.69-1.38a4,4,0,1,1,.31-7.9l31.73,1.23,1-26.67a3.95,3.95,0,0,1,4.1-3.8l23.24.91,1.06-27.4a3.95,3.95,0,0,1,7.89.31l-1.21,31.34a4,4,0,0,1-1.27,2.75,3.89,3.89,0,0,1-2.83,1l-23.24-.91-1,26.68a4,4,0,0,1-3.95,3.8Z"/><path class="cls-4" d="M186.07,446.19h-.15l-35.69-1.38a3.94,3.94,0,0,1-3.79-4.1,4,4,0,0,1,4.1-3.8l31.74,1.23,1-26.67a3.94,3.94,0,0,1,4.1-3.79l23.24.9,1.06-27.4a4,4,0,0,1,7.9.31l-1.22,31.34a3.95,3.95,0,0,1-4.1,3.8l-23.24-.9-1,26.67A4,4,0,0,1,186.07,446.19Z"/><path class="cls-3" d="M423.6,270.82a.56.56,0,0,1,0-.12l10.73-27.14a3.23,3.23,0,0,1,6,2.38l-9.55,24.13,20.28,8a3.23,3.23,0,0,1,1.82,4.2l-7,17.66,20.83,8.24a3.23,3.23,0,0,1-2.37,6l-23.84-9.43a3.24,3.24,0,0,1-1.77-1.72,3.12,3.12,0,0,1,0-2.47l7-17.67-20.28-8a3.22,3.22,0,0,1-1.86-4.07Z"/><path class="cls-4" d="M422.51,264.31s0-.08,0-.11l10.74-27.14a3.23,3.23,0,0,1,4.19-1.82,3.27,3.27,0,0,1,1.81,4.19l-9.54,24.14,20.28,8a3.23,3.23,0,0,1,1.81,4.19l-7,17.67,20.83,8.24a3.23,3.23,0,1,1-2.37,6l-23.83-9.42a3.26,3.26,0,0,1-1.78-1.72,3.21,3.21,0,0,1,0-2.47l7-17.67-20.28-8A3.24,3.24,0,0,1,422.51,264.31Z"/><path class="cls-3" d="M113.32,417.3a48.36,48.36,0,0,1-11.61-96l1.35,11.14A37.14,37.14,0,0,0,112,406.16Z"/><path class="cls-4" d="M108.11,411.06A48.36,48.36,0,0,1,96.5,315l1.35,11.14a37.14,37.14,0,0,0,8.91,73.74Z"/><path class="cls-3" d="M293.44,477.14a8.13,8.13,0,0,1-5.75-13.87l38-38a8.13,8.13,0,0,1,11.5,11.49l-38,38A8.1,8.1,0,0,1,293.44,477.14Z"/><line class="cls-4" x1="288.1" y1="460.93" x2="326.07" y2="422.96"/><path class="cls-4" d="M288.1,469.06a8.13,8.13,0,0,1-5.75-13.88l38-38a8.13,8.13,0,0,1,11.5,11.49l-38,38A8.1,8.1,0,0,1,288.1,469.06Z"/><path class="cls-4" d="M400.59,392.5a15.49,15.49,0,1,1,5.41-1A15.54,15.54,0,0,1,400.59,392.5Zm0-24.37a8.86,8.86,0,1,0,8.31,5.76h0A8.88,8.88,0,0,0,400.56,368.13Z"/><path class="cls-4" d="M415.56,345.85A8.31,8.31,0,0,1,408,334.09a8.21,8.21,0,0,1,4.65-4.33,8.32,8.32,0,0,1,10.7,4.87h0a8.32,8.32,0,0,1-7.78,11.22Zm0-12.19a3.88,3.88,0,0,0-3.63,5.24,3.88,3.88,0,1,0,7.26-2.72h0A3.89,3.89,0,0,0,415.55,333.66Z"/><path class="cls-4" d="M482.9,212a15.47,15.47,0,1,1,.3-5.49A15.54,15.54,0,0,1,482.9,212Zm-23.72-5.59a8.86,8.86,0,1,0,7.52-6.76h0A8.89,8.89,0,0,0,459.18,206.39Z"/><path class="cls-4" d="M434.49,186.51a8.31,8.31,0,0,1-7.05,6.33,8.3,8.3,0,0,1-9.28-7.2,8.31,8.31,0,0,1,7.2-9.28h0a8.31,8.31,0,0,1,9.28,7.2A8.52,8.52,0,0,1,434.49,186.51Zm-11.86-2.8a4,4,0,0,0-.07,1.38,3.88,3.88,0,1,0,3.36-4.34h0A3.89,3.89,0,0,0,422.63,183.71Z"/></g><g id="Pattern"><polygon class="cls-5" points="185.72 323.19 351.57 407.18 396.69 260.5 185.72 323.19"/><g class="cls-6"><g class="cls-7"><path class="cls-8" d="M351.61,384.35a3.39,3.39,0,0,1,2.45,5.76l-15.66,16a3.39,3.39,0,1,1-4.84-4.74l15.66-16A3.38,3.38,0,0,1,351.61,384.35Z"/><path class="cls-9" d="M288.61,389.12a3.39,3.39,0,0,1,3.42-5.24L314,388a3.39,3.39,0,0,1-1.25,6.66l-22-4.13A3.35,3.35,0,0,1,288.61,389.12Z"/><path class="cls-8" d="M285,319.49A3.39,3.39,0,0,1,291,321l3.39,22.13a3.39,3.39,0,0,1-6.7,1L284.34,322A3.35,3.35,0,0,1,285,319.49Z"/><path class="cls-9" d="M289,319.69a3.35,3.35,0,0,1,2.21-1.34,3.39,3.39,0,0,1,3.87,2.83l3.38,22.13a3.39,3.39,0,0,1-6.7,1l-3.38-22.12A3.36,3.36,0,0,1,289,319.69Z"/><path class="cls-8" d="M336.31,327.24a3.38,3.38,0,0,1-4.6,4.24l-20.31-9.4a3.39,3.39,0,0,1,2.84-6.15l20.31,9.4A3.36,3.36,0,0,1,336.31,327.24Z"/><path class="cls-9" d="M333.92,330.49a3.39,3.39,0,0,1-4.61,4.24L309,325.33a3.39,3.39,0,1,1,2.85-6.15l20.31,9.4A3.36,3.36,0,0,1,333.92,330.49Z"/><path class="cls-8" d="M318.78,284.37a3.39,3.39,0,0,1,.51,6.24l-19.91,10.23a3.39,3.39,0,0,1-3.1-6l19.91-10.23A3.45,3.45,0,0,1,318.78,284.37Z"/><path class="cls-9" d="M319.87,288.26a3.32,3.32,0,0,1,2,1.68,3.39,3.39,0,0,1-1.46,4.56l-19.91,10.23a3.39,3.39,0,0,1-3.1-6l19.91-10.23A3.36,3.36,0,0,1,319.87,288.26Z"/><path class="cls-8" d="M347.38,304.45a3.34,3.34,0,0,1,2.36-1.06,3.39,3.39,0,0,1,3.49,3.29l.64,22.37a3.39,3.39,0,0,1-6.77.19l-.65-22.37A3.39,3.39,0,0,1,347.38,304.45Z"/><path class="cls-9" d="M351.36,305.14a3.39,3.39,0,0,1,5.85,2.23l.64,22.37a3.39,3.39,0,1,1-6.77.2l-.65-22.37A3.36,3.36,0,0,1,351.36,305.14Z"/><path class="cls-8" d="M351.61,264.47a3.39,3.39,0,0,1,2.45,5.76l-15.66,16a3.39,3.39,0,1,1-4.84-4.74l15.66-16A3.38,3.38,0,0,1,351.61,264.47Z"/><path class="cls-9" d="M353.87,267.82a3.39,3.39,0,0,1,2.45,5.76l-15.66,16a3.39,3.39,0,1,1-4.84-4.74l15.66-16A3.38,3.38,0,0,1,353.87,267.82Z"/><path class="cls-8" d="M287.09,273a3.38,3.38,0,0,1,3.42-5.24l22,4.13a3.39,3.39,0,0,1-1.25,6.66l-22-4.13A3.35,3.35,0,0,1,287.09,273Z"/><path class="cls-9" d="M288.61,269.24A3.39,3.39,0,0,1,292,264l22,4.13a3.39,3.39,0,0,1-1.25,6.66l-22-4.13A3.35,3.35,0,0,1,288.61,269.24Z"/><path class="cls-8" d="M363.74,294.19A3.38,3.38,0,0,1,369.6,292l15.26,16.38a3.39,3.39,0,0,1-5,4.61l-15.26-16.38A3.39,3.39,0,0,1,363.74,294.19Z"/><path class="cls-9" d="M367.18,292.08a3.39,3.39,0,0,1,5.87-2.19l15.25,16.38a3.39,3.39,0,1,1-5,4.62l-15.25-16.38A3.36,3.36,0,0,1,367.18,292.08Z"/><path class="cls-8" d="M374.36,280.15a3.35,3.35,0,0,1-1.42-2.17,3.39,3.39,0,0,1,2.69-4l22-4.18a3.39,3.39,0,1,1,1.26,6.66l-22,4.18A3.39,3.39,0,0,1,374.36,280.15Z"/><path class="cls-9" d="M374.41,276.11a3.38,3.38,0,0,1,1.28-6.12l22-4.18a3.39,3.39,0,1,1,1.27,6.65l-22,4.18A3.35,3.35,0,0,1,374.41,276.11Z"/><path class="cls-8" d="M329.45,350.62a3.39,3.39,0,0,1,5.86-2.19l15.26,16.38a3.39,3.39,0,1,1-5,4.62l-15.25-16.38A3.36,3.36,0,0,1,329.45,350.62Z"/><path class="cls-9" d="M332.89,348.52a3.44,3.44,0,0,1,1.08-2.36,3.38,3.38,0,0,1,4.79.17L354,362.71a3.39,3.39,0,1,1-5,4.62L333.8,351A3.39,3.39,0,0,1,332.89,348.52Z"/><path class="cls-8" d="M312.54,349.37a3.39,3.39,0,0,1,4.43,4.42l-8.55,20.68a3.39,3.39,0,1,1-6.26-2.59l8.55-20.68A3.38,3.38,0,0,1,312.54,349.37Z"/><path class="cls-9" d="M315.89,351.63a3.32,3.32,0,0,1,2.59,0,3.39,3.39,0,0,1,1.84,4.42l-8.56,20.68a3.39,3.39,0,1,1-6.26-2.59l8.56-20.68A3.38,3.38,0,0,1,315.89,351.63Z"/><path class="cls-8" d="M368.12,326.66a3.39,3.39,0,0,1,6.1,1.41l3.71,22.07a3.39,3.39,0,0,1-6.69,1.12l-3.7-22.07A3.38,3.38,0,0,1,368.12,326.66Z"/><path class="cls-9" d="M372.16,326.8a3.39,3.39,0,0,1,6.1,1.41l3.7,22.07a3.39,3.39,0,0,1-6.68,1.12l-3.71-22.07A3.39,3.39,0,0,1,372.16,326.8Z"/><path class="cls-8" d="M254.48,280.15a3.35,3.35,0,0,1-1.42-2.17,3.39,3.39,0,0,1,2.69-4l22-4.18A3.39,3.39,0,1,1,279,276.5l-22,4.18A3.39,3.39,0,0,1,254.48,280.15Z"/><path class="cls-9" d="M254.53,276.11a3.38,3.38,0,0,1,1.28-6.12l22-4.18a3.39,3.39,0,1,1,1.27,6.65l-22,4.18A3.35,3.35,0,0,1,254.53,276.11Z"/></g><g class="cls-10"><path class="cls-8" d="M285,439.37a3.39,3.39,0,0,1,6.08,1.49L294.42,463a3.39,3.39,0,0,1-6.7,1l-3.38-22.12A3.35,3.35,0,0,1,285,439.37Z"/><path class="cls-9" d="M289,439.57a3.35,3.35,0,0,1,2.21-1.34,3.39,3.39,0,0,1,3.87,2.83l3.38,22.13a3.39,3.39,0,0,1-6.7,1l-3.38-22.12A3.36,3.36,0,0,1,289,439.57Z"/><path class="cls-8" d="M336.31,447.12a3.38,3.38,0,0,1-4.6,4.24L311.4,442a3.39,3.39,0,0,1,2.84-6.15l20.31,9.4A3.36,3.36,0,0,1,336.31,447.12Z"/><path class="cls-9" d="M333.92,450.37a3.39,3.39,0,0,1-4.61,4.24L309,445.21a3.39,3.39,0,1,1,2.85-6.15l20.31,9.4A3.36,3.36,0,0,1,333.92,450.37Z"/><path class="cls-8" d="M318.78,404.25a3.39,3.39,0,0,1,.51,6.24l-19.91,10.23a3.39,3.39,0,0,1-3.1-6l19.91-10.23A3.45,3.45,0,0,1,318.78,404.25Z"/><path class="cls-9" d="M319.87,408.14a3.32,3.32,0,0,1,2,1.68,3.39,3.39,0,0,1-1.46,4.56L300.47,424.6a3.39,3.39,0,1,1-3.1-6l19.91-10.23A3.36,3.36,0,0,1,319.87,408.14Z"/><path class="cls-8" d="M347.38,424.33a3.34,3.34,0,0,1,2.36-1.06,3.39,3.39,0,0,1,3.49,3.29l.64,22.37a3.39,3.39,0,0,1-6.77.19l-.65-22.37A3.39,3.39,0,0,1,347.38,424.33Z"/><path class="cls-9" d="M351.36,425a3.39,3.39,0,0,1,5.85,2.23l.64,22.37a3.39,3.39,0,1,1-6.77.2l-.65-22.38A3.35,3.35,0,0,1,351.36,425Z"/><path class="cls-8" d="M351.61,384.35a3.39,3.39,0,0,1,2.45,5.76l-15.66,16a3.39,3.39,0,1,1-4.84-4.74l15.66-16A3.38,3.38,0,0,1,351.61,384.35Z"/><path class="cls-9" d="M353.87,387.7a3.39,3.39,0,0,1,2.45,5.76l-15.66,16a3.39,3.39,0,1,1-4.84-4.74l15.66-16A3.41,3.41,0,0,1,353.87,387.7Z"/><path class="cls-8" d="M287.09,392.86a3.38,3.38,0,0,1,3.42-5.24l22,4.13a3.39,3.39,0,0,1-1.25,6.66l-22-4.13A3.35,3.35,0,0,1,287.09,392.86Z"/><path class="cls-9" d="M288.61,389.12a3.39,3.39,0,0,1,3.42-5.24L314,388a3.39,3.39,0,0,1-1.25,6.66l-22-4.13A3.35,3.35,0,0,1,288.61,389.12Z"/><path class="cls-8" d="M363.74,414.06a3.38,3.38,0,0,1,5.86-2.18l15.26,16.37a3.39,3.39,0,1,1-5,4.62l-15.26-16.38A3.4,3.4,0,0,1,363.74,414.06Z"/><path class="cls-9" d="M367.18,412a3.39,3.39,0,0,1,5.87-2.19l15.25,16.38a3.39,3.39,0,1,1-5,4.62l-15.25-16.38A3.36,3.36,0,0,1,367.18,412Z"/><path class="cls-8" d="M374.36,400a3.39,3.39,0,0,1,1.27-6.13l22-4.18a3.39,3.39,0,0,1,1.26,6.66l-22,4.18A3.39,3.39,0,0,1,374.36,400Z"/><path class="cls-9" d="M374.41,396a3.39,3.39,0,0,1,1.28-6.13l22-4.18a3.39,3.39,0,0,1,1.27,6.66l-22,4.18A3.35,3.35,0,0,1,374.41,396Z"/><path class="cls-8" d="M329.45,470.5a3.39,3.39,0,0,1,5.86-2.19l15.26,16.38a3.39,3.39,0,1,1-5,4.62l-15.25-16.38A3.36,3.36,0,0,1,329.45,470.5Z"/><path class="cls-9" d="M332.89,468.4A3.44,3.44,0,0,1,334,466a3.38,3.38,0,0,1,4.79.17L354,482.59a3.39,3.39,0,0,1-5,4.61L333.8,470.83A3.39,3.39,0,0,1,332.89,468.4Z"/><path class="cls-8" d="M312.54,469.25a3.39,3.39,0,0,1,4.43,4.42l-8.55,20.68a3.39,3.39,0,1,1-6.26-2.59l8.55-20.68A3.38,3.38,0,0,1,312.54,469.25Z"/><path class="cls-9" d="M315.89,471.51a3.32,3.32,0,0,1,2.59,0,3.39,3.39,0,0,1,1.84,4.42l-8.56,20.68A3.39,3.39,0,1,1,305.5,494l8.56-20.68A3.38,3.38,0,0,1,315.89,471.51Z"/><path class="cls-8" d="M368.12,446.54a3.34,3.34,0,0,1,2.2-1.37,3.38,3.38,0,0,1,3.9,2.78L377.93,470a3.39,3.39,0,0,1-6.69,1.12l-3.7-22.07A3.38,3.38,0,0,1,368.12,446.54Z"/><path class="cls-9" d="M372.16,446.68a3.39,3.39,0,0,1,6.1,1.41l3.7,22.07a3.39,3.39,0,0,1-6.68,1.12l-3.71-22.07A3.39,3.39,0,0,1,372.16,446.68Z"/><path class="cls-8" d="M254.48,400a3.39,3.39,0,0,1,1.27-6.13l22-4.18a3.39,3.39,0,0,1,1.26,6.66l-22,4.18A3.39,3.39,0,0,1,254.48,400Z"/><path class="cls-9" d="M254.53,396a3.39,3.39,0,0,1,1.28-6.13l22-4.18a3.39,3.39,0,0,1,1.27,6.66l-22,4.18A3.35,3.35,0,0,1,254.53,396Z"/></g><g class="cls-11"><path class="cls-8" d="M231.73,384.35a3.39,3.39,0,0,1,2.45,5.76l-15.66,16a3.39,3.39,0,0,1-4.84-4.74l15.66-16A3.38,3.38,0,0,1,231.73,384.35Z"/><path class="cls-9" d="M168.73,389.12a3.39,3.39,0,0,1,3.42-5.24l22,4.13a3.39,3.39,0,1,1-1.25,6.66l-22-4.13A3.35,3.35,0,0,1,168.73,389.12Z"/><path class="cls-8" d="M165.07,319.49a3.39,3.39,0,0,1,6.08,1.49l3.39,22.13a3.39,3.39,0,0,1-6.7,1L164.46,322A3.35,3.35,0,0,1,165.07,319.49Z"/><path class="cls-9" d="M169.11,319.69a3.39,3.39,0,0,1,6.08,1.49l3.38,22.13a3.39,3.39,0,0,1-6.7,1l-3.38-22.12A3.36,3.36,0,0,1,169.11,319.69Z"/><path class="cls-8" d="M216.43,327.24a3.38,3.38,0,0,1-4.6,4.24l-20.31-9.4a3.39,3.39,0,0,1,2.84-6.15l20.32,9.4A3.38,3.38,0,0,1,216.43,327.24Z"/><path class="cls-9" d="M214,330.49a3.34,3.34,0,0,1-.11,2.59,3.37,3.37,0,0,1-4.49,1.65l-20.32-9.4a3.39,3.39,0,1,1,2.85-6.15l20.31,9.4A3.36,3.36,0,0,1,214,330.49Z"/><path class="cls-8" d="M198.9,284.37a3.39,3.39,0,0,1,.51,6.24L179.5,300.84a3.39,3.39,0,0,1-3.1-6l19.91-10.23A3.45,3.45,0,0,1,198.9,284.37Z"/><path class="cls-9" d="M200,288.26a3.32,3.32,0,0,1,2,1.68,3.39,3.39,0,0,1-1.46,4.56l-19.91,10.23a3.39,3.39,0,0,1-3.1-6l19.91-10.23A3.36,3.36,0,0,1,200,288.26Z"/><path class="cls-8" d="M227.5,304.45a3.34,3.34,0,0,1,2.36-1.06,3.38,3.38,0,0,1,3.49,3.29l.64,22.37a3.39,3.39,0,0,1-6.77.19l-.64-22.37A3.34,3.34,0,0,1,227.5,304.45Z"/><path class="cls-9" d="M231.48,305.14a3.39,3.39,0,0,1,5.85,2.23l.64,22.37a3.39,3.39,0,1,1-6.77.2l-.65-22.37A3.4,3.4,0,0,1,231.48,305.14Z"/><path class="cls-8" d="M231.73,264.47a3.39,3.39,0,0,1,2.45,5.76l-15.66,16a3.39,3.39,0,0,1-4.84-4.74l15.66-16A3.38,3.38,0,0,1,231.73,264.47Z"/><path class="cls-9" d="M234,267.82a3.39,3.39,0,0,1,2.45,5.76l-15.66,16a3.39,3.39,0,1,1-4.84-4.74l15.66-16A3.39,3.39,0,0,1,234,267.82Z"/><path class="cls-8" d="M167.21,273a3.33,3.33,0,0,1-.53-2.53,3.38,3.38,0,0,1,3.95-2.71l22,4.13a3.39,3.39,0,0,1-1.25,6.66l-22-4.13A3.35,3.35,0,0,1,167.21,273Z"/><path class="cls-9" d="M168.73,269.24a3.39,3.39,0,0,1,3.42-5.24l22,4.13a3.39,3.39,0,1,1-1.25,6.66l-22-4.13A3.35,3.35,0,0,1,168.73,269.24Z"/><path class="cls-8" d="M243.86,294.19a3.34,3.34,0,0,1,1.08-2.36,3.37,3.37,0,0,1,4.78.17L265,308.38a3.39,3.39,0,0,1-5,4.61l-15.25-16.38A3.36,3.36,0,0,1,243.86,294.19Z"/><path class="cls-9" d="M247.3,292.08a3.39,3.39,0,0,1,5.87-2.19l15.25,16.38a3.39,3.39,0,1,1-5,4.62l-15.25-16.38A3.36,3.36,0,0,1,247.3,292.08Z"/><path class="cls-8" d="M254.48,280.15a3.35,3.35,0,0,1-1.42-2.17,3.39,3.39,0,0,1,2.69-4l22-4.18A3.39,3.39,0,1,1,279,276.5l-22,4.18A3.39,3.39,0,0,1,254.48,280.15Z"/><path class="cls-9" d="M254.53,276.11a3.38,3.38,0,0,1,1.28-6.12l22-4.18a3.39,3.39,0,1,1,1.27,6.65l-22,4.18A3.35,3.35,0,0,1,254.53,276.11Z"/><path class="cls-8" d="M209.57,350.62a3.39,3.39,0,0,1,5.87-2.19l15.25,16.38a3.39,3.39,0,1,1-5,4.62l-15.25-16.38A3.36,3.36,0,0,1,209.57,350.62Z"/><path class="cls-9" d="M213,348.52a3.38,3.38,0,0,1,5.86-2.19l15.25,16.38a3.39,3.39,0,1,1-4.95,4.62L213.92,351A3.34,3.34,0,0,1,213,348.52Z"/><path class="cls-8" d="M192.66,349.37a3.39,3.39,0,0,1,4.43,4.42l-8.55,20.68a3.39,3.39,0,1,1-6.26-2.59l8.55-20.68A3.38,3.38,0,0,1,192.66,349.37Z"/><path class="cls-9" d="M196,351.63a3.32,3.32,0,0,1,2.59,0,3.38,3.38,0,0,1,1.84,4.42l-8.56,20.68a3.39,3.39,0,1,1-6.26-2.59l8.56-20.68A3.38,3.38,0,0,1,196,351.63Z"/><path class="cls-8" d="M248.24,326.66a3.39,3.39,0,0,1,6.1,1.41l3.71,22.07a3.39,3.39,0,0,1-6.69,1.12l-3.7-22.07A3.43,3.43,0,0,1,248.24,326.66Z"/><path class="cls-9" d="M252.28,326.8a3.39,3.39,0,0,1,6.1,1.41l3.7,22.07a3.39,3.39,0,0,1-6.68,1.12l-3.7-22.07A3.34,3.34,0,0,1,252.28,326.8Z"/><path class="cls-8" d="M134.6,280.15a3.35,3.35,0,0,1-1.42-2.17,3.39,3.39,0,0,1,2.69-4l22-4.18a3.39,3.39,0,0,1,1.27,6.66l-22,4.18A3.39,3.39,0,0,1,134.6,280.15Z"/><path class="cls-9" d="M134.65,276.11a3.38,3.38,0,0,1,1.28-6.12l22-4.18a3.39,3.39,0,1,1,1.27,6.65l-22,4.18A3.35,3.35,0,0,1,134.65,276.11Z"/></g></g><path class="cls-4" d="M349.58,395.51l-173.17-87.7,220.28-65.46ZM188.35,308.89l158.54,80.28L390,249Z"/></g><g id="Name"><g id="Name_shadows"><path class="cls-12" d="M188.07,127.45c-2.12,4-4.14,8.4-6.77,12.41a16.53,16.53,0,0,1-6,5.43c-7.16,3.69-15.33-.75-17.19-9a33.5,33.5,0,0,1,.36-14.91,59.83,59.83,0,0,1,13.94-27.52c4.49-4.93,9.7-8.93,16.7-9.16a25.83,25.83,0,0,1,8.38,1.49,3.48,3.48,0,0,1,2.13,4.63c-.72,1.68-2.34,2.28-4.67,1.4-4.22-1.57-7.61.1-10.68,2.67-6.79,5.66-10.94,13.16-13.95,21.27a83.68,83.68,0,0,0-3.22,12.74,13.41,13.41,0,0,0,.24,5.19c.61,3.07,3.08,4.07,5.34,1.95a32.64,32.64,0,0,0,5.53-6.86c5.09-8.38,8.13-17.6,10.56-27,.86-3.31,3.44-4.71,6.35-3.62,2.39.9,3.31,2.93,2.87,5.72-.92,5.83-1.88,11.66-2.49,17.52-.2,2,.55,4,1,6,.39,1.58,1.56,1.89,2.74.85a19,19,0,0,0,3.53-3.81,81.64,81.64,0,0,0,10.46-23.86c2.17-8.64,5.33-16.76,11.59-23.39a15.81,15.81,0,0,1,13-5.35c7.29.53,12.17,7.71,10.61,15.36A20,20,0,0,1,246.48,93a4.31,4.31,0,0,1-5.8,1.43,4.75,4.75,0,0,1-2.44-5.72,20.7,20.7,0,0,0,1.4-5.23,4.24,4.24,0,0,0-1.46-3.42,4.18,4.18,0,0,0-3.75.39,20.83,20.83,0,0,0-4.73,5.14,51.09,51.09,0,0,0-8,23.69,24.23,24.23,0,0,0,1.08,8.25c1,3.6,3.83,4.86,7.5,3.85,5.44-1.48,9.47-5.09,13.11-9.1A60.85,60.85,0,0,0,257.61,87c2.37-8.85,6.6-16.84,14-22.66A40.88,40.88,0,0,1,279,59.58c2.9-1.39,5.82-.14,8.5,1.15a8.14,8.14,0,0,1,3,2.38A4.24,4.24,0,0,0,295,65c3.41-.6,6.84-1.18,10.2-2a3.4,3.4,0,0,0,2.1-2c2.05-8,4-16,5.82-24.1a41,41,0,0,0,.51-7c.15-2.93,1.95-4.95,4.54-5,2.95,0,4.77,1.92,4.88,5.06.3,8.8-2.2,17.1-4.32,25.49-2.46,9.7-4.91,19.39-7.18,29.14a22,22,0,0,0-.23,6.79c.4,4.52,3.81,6,7.38,3.15,3.74-2.93,6.12-6.91,8-11.2a44.52,44.52,0,0,0,4-19.46c-.12-3.21-.86-6-4.43-7.07a9.77,9.77,0,0,1-2.86-1.84,4.72,4.72,0,0,1,3.28-8.47,47.67,47.67,0,0,1,7.15,2.63c1.52.59,3,1.55,4.53,1.8,4.62.72,9.28.74,13.62-1.34a25.56,25.56,0,0,0,5-3.4c1.11-.91,2.14-2,3.52-.87a2.82,2.82,0,0,1,.38,4.1,21.46,21.46,0,0,1-4.54,4.39,35.79,35.79,0,0,1-16.72,6c0,3.27.21,6.51,0,9.72a52.37,52.37,0,0,1-9.39,26.73c-3.14,4.44-7.12,7.91-12.72,8.91a13.26,13.26,0,0,1-14.94-9.43c-1.87-6.47-.57-12.8.69-19.13.39-2,1-4,1.5-6.12l-11.31,3.24c.07.67.17,1.48.22,2.28.83,12.84-1.66,24.79-9.77,35.11a19.25,19.25,0,0,1-9.07,6.63c-8.62,2.87-16.32-1.32-18.66-10.13-.11-.44-.2-.88-.41-1.81-1.13,1.91-2,3.51-3,5.08-4,6.52-8.53,12.65-15.2,16.67-5.81,3.49-12.08,5.12-18.17.84-2.43-1.71-4.12-4.47-6.15-6.75a59.77,59.77,0,0,1-2.42,6,44.1,44.1,0,0,1-4.26,7c-4.31,5.48-13.11,7.25-17.14-2.79C188.82,130.17,188.42,128.54,188.07,127.45ZM278,68.23a38.86,38.86,0,0,0-3.71,3.63A41.13,41.13,0,0,0,267,87.17c-1.5,5.58-2.8,11.23-1.85,17.07.79,4.83,4.52,6.33,8.5,3.5a18.4,18.4,0,0,0,2.38-2.12c4-4.09,6.08-9.21,7.77-14.52s2.82-10.57,2-16.12a3.69,3.69,0,0,0-1.19-2.19C282.69,71.3,280.61,70,278,68.23Z"/><path class="cls-12" d="M198.83,205c5.38-9.91,13.8-12.72,19.37-5.83a92.3,92.3,0,0,1,6.28-7.28,10.57,10.57,0,0,1,11.84-2.26c3.86,1.55,5.61,4.78,6,8.74a22.94,22.94,0,0,1-.23,6.57c-1.19,5.55-2.77,11-4,16.57a80.19,80.19,0,0,0-1.51,9.64,3.32,3.32,0,0,0,1.25,2.64,2.77,2.77,0,0,0,2.56-.66,83.69,83.69,0,0,0,7.56-9.3c6.65-10.17,9.36-21.8,11.85-33.48a11,11,0,0,0,0-2.92,4.16,4.16,0,0,1,3.52-4.57,4,4,0,0,1,4.7,3.28,26.42,26.42,0,0,1-.37,7.43c-1.65,7.94-3.64,15.81-5.29,23.75a16.18,16.18,0,0,0,.16,6.08c.5,2.62,2.59,3.46,4.5,1.64a39.08,39.08,0,0,0,6.3-7.69,82.42,82.42,0,0,0,10.57-27c1.13-5.64,2.86-11.16,4.31-16.73.3-1.15.54-2.31,1-4.13-2.4,1.22-4.27,2.15-6.11,3.11-.47.25-.83.81-1.3.9a27.64,27.64,0,0,1-3.16.22c.13-1.1-.13-2.75.48-3.2a51.48,51.48,0,0,1,9-5.63,5.43,5.43,0,0,0,3.55-4.67c.43-3.31,1-6.61,1.4-9.92.33-2.51,1.88-4.15,4-4.1a4.12,4.12,0,0,1,4.11,4.29c0,2.64-.37,5.28-.62,8.44,1.17-1.11,2.11-2,3-2.88,2-1.95,4.51-2.3,6.09-.8s1.21,4.16-.52,6.18c-2.47,2.87-5.74,4.39-9.21,5.63-.68.24-1.56.84-1.71,1.44-2.71,10.51-5.48,21-7.88,31.57-.93,4.11-1,8.42-1.44,12.64a7,7,0,0,0,.15,2.71c.35,1.11.76,2.68,1.58,3s2.31-.47,3.12-1.21c4.05-3.7,6.49-8.53,9-13.29,5.12-9.59,7.15-20.14,9.37-30.58,2.13-10,3.67-20.14,5.45-30.22.44-2.46,2.07-3.88,4.37-3.69,2.5.2,4.09,1.75,3.76,4.42-.75,6.09-1.75,12.15-2.74,18.21-.5,3.07-1.21,6.1-1.81,9.15-.14.71-.21,1.44-.31,2.16l.55.23a23,23,0,0,1,1.5-2.55c2.29-2.89,4.27-6.19,7.06-8.48,5.75-4.71,13.05-1.91,14.22,5.48a32.81,32.81,0,0,1-.39,11.26c-1.22,6.16-3.14,12.19-4.71,18.28a12.51,12.51,0,0,0-.6,4c.1,1.16.58,2.82,1.4,3.22a3.61,3.61,0,0,0,3.35-.9A83.15,83.15,0,0,0,350.78,193c2.5-4.58,4.34-9.51,6.46-14.29.12-.28.16-.67.37-.83,1-.75,2.23-2.17,3.1-2,1.61.33,1.07,2,.72,3.26-2.32,8.5-4.6,17-9.23,24.64a30.73,30.73,0,0,1-6.36,7.62c-5.39,4.45-13.32,1.58-15.18-5.17-1.28-4.65-.3-9.18.81-13.69,1.48-6,3.1-12,4.5-18.1.48-2.08,1.29-4.78-1.27-5.89-2.33-1-3.82,1.33-5.13,2.86a57.37,57.37,0,0,0-10,17.53c-3.76,10-7.08,20.16-10.48,30.29-.68,2-1.19,4-3.75,4.24s-4-1-5-3.41c-3.25,3.42-5.94,7.61-11.4,6.82s-7.1-5.08-8.43-9.84c-1.58,3.07-2.87,6-4.57,8.71a27.69,27.69,0,0,1-4.86,6c-5,4.47-12.22,3-15.45-2.88-.45-.84-.83-1.72-1.21-2.52-2.19,3.57-4.16,7.23-6.56,10.58-2.71,3.78-6.41,6.13-11.32,5.37s-8-4.71-8.42-10c-.37-5.09.87-9.94,2.11-14.8s2.46-9.86,3.57-14.82a12.06,12.06,0,0,0,.24-4.06c-.12-1-.55-2.54-1.26-2.84a3.22,3.22,0,0,0-2.9,1,47.16,47.16,0,0,0-5.19,8.22c-4.85,10.63-7.47,21.94-9.58,33.38-.48,2.61-.92,5.22-1.37,7.84s-2.4,4.26-4.92,3.84-3.84-2.35-3.29-5.06c1.88-9.14,4-18.23,5.77-27.38a66.41,66.41,0,0,0,1.23-10.79c0-1.35-.86-3.47-1.89-3.91a4.88,4.88,0,0,0-4.49.81,40.92,40.92,0,0,0-6.41,9.25c-4.75,10.24-7.1,21.25-9.31,32.27-.5,2.53-.95,5.07-1.42,7.61s-2.4,4.15-4.53,3.84a4.14,4.14,0,0,1-3.69-5.25c1.69-8.79,3.45-17.57,5.19-26.35,1.44-7.29,2.91-14.58,4.36-21.87.55-2.73,1.92-4.2,4-4.24,2.2,0,3.44,1.19,4.1,4C198.55,203.6,198.65,204.12,198.83,205Z"/><path class="cls-12" d="M134.17,212.76a44,44,0,0,0-15.79,5C101.55,227,95.47,242,96.16,260.4c.1,2.57-.26,4.81-2.43,6.49A6.28,6.28,0,0,1,87.12,268c-2.38-1-3.3-3-3.44-5.45a50.34,50.34,0,0,1,6.47-27.8c7.17-12.79,17.27-22.45,31.28-27.47,3.48-1.24,7.18-1.87,10.78-2.76,1.08-.26,2-.31,2.45-1.81,3.32-11.19,15.79-18.26,27.39-15.63,6.36,1.44,11.94,4.05,15.15,10.18a13.75,13.75,0,0,1-6.48,19,12.47,12.47,0,0,1-9.77-.17,50.41,50.41,0,0,0-16.32-3.81,2.34,2.34,0,0,0-1.58.61c1.59,1.5,3,3.36,4.8,4.41,3.81,2.16,7.87,3.88,11.82,5.8,14.57,7.09,20.09,24.54,17.52,37.55C174,276.76,162,289,146.71,291.49c-16.89,2.75-34-6.55-40.09-21.8-6.77-16.95-1.48-35.41,13.07-45.21a27.22,27.22,0,0,1,6.49-3.2,6.28,6.28,0,0,1,7.79,4.17,5.57,5.57,0,0,1-4.31,7.13c-18.11,3.57-23.57,26.9-10.41,41.42a28.91,28.91,0,0,0,47.25-6.19c6.45-12.47,1.35-28.14-11.55-35.19-2.45-1.34-5.11-2.31-7.66-3.48C139.77,225.7,136.43,221.58,134.17,212.76Zm9-9.19A30.6,30.6,0,0,1,147,204c6,1.43,11.87,2.94,17.81,4.41,3.28.81,5.57-.92,5.59-4.31,0-3.54-2.16-5.73-5-7.24a17.72,17.72,0,0,0-12.17-1.55A13.11,13.11,0,0,0,143.2,203.57Z"/><path class="cls-12" d="M149.79,81.89a33.5,33.5,0,0,0-16,5.92c-15.63,10.76-19.58,33-8.54,48.18.63.86,1.34,1.65,2,2.47,2.56,3.09,2.61,6.11.15,8.57s-7.27,3-9.52.43a37,37,0,0,1-6.47-9.77c-6.26-15-4.42-29.62,3.9-43.35,6.28-10.37,15.14-17.87,27.16-20.66,4.73-1.1,9.75-1.16,14.65-1.19,3.45,0,5.6,4.55,3.26,7.12-7.2,7.9-9.36,17.73-11,27.71-1.71,10.4-2.89,20.89-4.47,31.31-1.43,9.46-3.26,18.84-7.29,27.63-4.64,10.11-12.18,16.89-23.17,19-10.36,2-20.63-3.41-24.75-14.46-4.85-13,.8-25.34,11.39-33.17a4.68,4.68,0,0,1,6.51,1,4.79,4.79,0,0,1-.92,6.53c-3.87,3.2-7,6.85-8.6,11.77-2.55,8.07,2.06,17.32,9.61,18.87,5.49,1.14,10.14-1,14.38-4.26,5.37-4.07,7.69-10,9.55-16.18,3.52-11.6,4.61-23.64,6.32-35.57,1.48-10.38,3.13-20.73,7.68-30.32C146.77,87,148.23,84.67,149.79,81.89Z"/><path class="cls-12" d="M153.37,168.85c-.46-.48-1.38-1-1.61-1.78-.43-1.43.52-2.19,1.87-2.59,5.09-1.49,10.18-3,15.27-4.54l61.29-18.21,44.72-13.27,60-17.86c7.27-2.16,14.52-4.4,21.82-6.44a4.22,4.22,0,0,1,3.38.63c1.09,1,.16,2.62-1.63,3.15q-13.08,3.91-26.18,7.8L275.8,132.55q-24.44,7.26-48.87,14.5L171.32,163.6l-16.14,4.82C154.75,168.55,154.3,168.63,153.37,168.85Z"/><path class="cls-12" d="M137.49,305.87c-15.28-.56-28-7.84-36.08-22.86-.69-1.3-1.25-2.68.36-3.55s2.57.12,3.34,1.63c7.85,15.25,24.78,23.39,41,19.74a36,36,0,0,0,18.27-10.06c.21-.22.44-.42.65-.64,1-1.1,2.24-1.88,3.49-.55s.48,2.5-.58,3.58C160,301.28,150.35,305.4,137.49,305.87Z"/><path class="cls-12" d="M342.36,226.88c-5.83-.11-10.2-2.58-13.9-6.46-1.2-1.27-1-2.45.21-3.55s2.29-.94,3.37.19a20.3,20.3,0,0,0,1.67,1.54c6.16,5.12,13,4.86,18.78-.73,4.31-4.13,7.06-9.27,9.29-14.69,1.38-3.36,2.42-6.85,3.61-10.28a5.41,5.41,0,0,1,.37-1.07c.85-1.47,1.8-3.08,3.81-2.43s1.42,2.41,1,3.84c-3.11,10.14-6.76,20-14.71,27.54C352,224.43,347.48,226.75,342.36,226.88Z"/><path class="cls-12" d="M266.92,164.85a5.37,5.37,0,1,1-.07,10.73,5.24,5.24,0,0,1-5.28-5.39A5.33,5.33,0,0,1,266.92,164.85Z"/><path class="cls-12" d="M372.51,182.66c.08,1.85-1.78,3.93-3,3.65-.81-.18-1.43-1.18-2.13-1.81a20.26,20.26,0,0,1,3.17-3.05C370.85,181.24,372,182.35,372.51,182.66Z"/><path class="cls-12" d="M102.34,274c-1.31,1-2.09,2-2.8,2s-2-1.15-2-1.8a2.71,2.71,0,0,1,1.81-2C100.08,272.08,101,273.1,102.34,274Z"/><path class="cls-12" d="M369.09,103.3c-1.34,1-2.12,2-2.8,2s-1.42-1.13-2.13-1.76c.65-.69,1.22-1.8,2-1.94S367.67,102.43,369.09,103.3Z"/></g><g id="Name-2" data-name="Name"><path class="cls-13" d="M182.4,123.83c-2.13,4-4.14,8.4-6.77,12.41a16.47,16.47,0,0,1-6,5.43c-7.15,3.69-15.33-.75-17.18-9a33.5,33.5,0,0,1,.35-14.91A59.92,59.92,0,0,1,166.77,90.2c4.49-4.93,9.71-8.93,16.7-9.16a25.84,25.84,0,0,1,8.39,1.49A3.46,3.46,0,0,1,194,87.16c-.71,1.68-2.34,2.28-4.67,1.41-4.21-1.58-7.6.09-10.68,2.66-6.78,5.66-10.94,13.16-13.95,21.27a86.1,86.1,0,0,0-3.22,12.74,13.81,13.81,0,0,0,.24,5.19c.61,3.07,3.08,4.07,5.35,1.95a32.64,32.64,0,0,0,5.53-6.86c5.08-8.38,8.13-17.59,10.56-27,.85-3.31,3.44-4.7,6.35-3.62,2.39.9,3.31,2.93,2.87,5.72-.93,5.83-1.89,11.66-2.49,17.52-.2,2,.55,4,1,6,.39,1.59,1.55,1.89,2.73.86a18.75,18.75,0,0,0,3.53-3.82,81.28,81.28,0,0,0,10.47-23.86c2.16-8.64,5.33-16.76,11.59-23.38a15.77,15.77,0,0,1,13-5.36c7.29.53,12.17,7.71,10.62,15.36a20,20,0,0,1-2.06,5.49,4.31,4.31,0,0,1-5.8,1.43,4.74,4.74,0,0,1-2.44-5.72,20.59,20.59,0,0,0,1.4-5.23,4.3,4.3,0,0,0-1.46-3.42,4.15,4.15,0,0,0-3.75.4A20.61,20.61,0,0,0,224,82a51.09,51.09,0,0,0-8,23.69,24.18,24.18,0,0,0,1.07,8.25c1,3.6,3.84,4.86,7.51,3.85,5.43-1.48,9.47-5.08,13.1-9.1a60.76,60.76,0,0,0,14.26-25.31c2.37-8.85,6.6-16.84,14-22.66A41.31,41.31,0,0,1,273.37,56c2.9-1.39,5.81-.14,8.49,1.15a8.17,8.17,0,0,1,3,2.38,4.22,4.22,0,0,0,4.49,1.89c3.41-.6,6.83-1.18,10.19-2a3.41,3.41,0,0,0,2.11-2c2-8,4-16,5.82-24.1a43.07,43.07,0,0,0,.51-7c.14-2.94,1.95-5,4.53-5,3,0,4.77,1.92,4.88,5.06.3,8.8-2.2,17.11-4.32,25.49-2.45,9.7-4.91,19.39-7.17,29.14a22,22,0,0,0-.24,6.79c.41,4.52,3.82,6,7.38,3.15,3.75-2.93,6.13-6.91,8-11.2a44.66,44.66,0,0,0,4-19.46c-.12-3.21-.87-6-4.44-7.07a10,10,0,0,1-2.86-1.84A4.72,4.72,0,0,1,321,42.82a50.3,50.3,0,0,1,7.14,2.63c1.52.59,3,1.55,4.54,1.8,4.62.72,9.28.74,13.61-1.34a25.27,25.27,0,0,0,5-3.4c1.12-.91,2.14-2,3.53-.87a2.83,2.83,0,0,1,.38,4.11,22,22,0,0,1-4.55,4.38,35.71,35.71,0,0,1-16.72,6c0,3.27.21,6.51,0,9.72a52.46,52.46,0,0,1-9.39,26.73c-3.15,4.44-7.13,7.91-12.73,8.91a13.26,13.26,0,0,1-14.94-9.43c-1.86-6.47-.56-12.8.69-19.13.4-2,1-4,1.5-6.12l-11.3,3.24c.06.68.17,1.48.22,2.28.82,12.84-1.66,24.79-9.77,35.11a19.33,19.33,0,0,1-9.08,6.63c-8.62,2.87-16.32-1.31-18.65-10.13-.12-.44-.21-.88-.42-1.81-1.12,1.91-2,3.52-3,5.08-4,6.52-8.53,12.65-15.2,16.67-5.8,3.49-12.07,5.12-18.17.84-2.42-1.71-4.11-4.47-6.14-6.75-.69,1.72-1.38,3.93-2.42,6a44.1,44.1,0,0,1-4.26,7c-4.31,5.48-13.12,7.25-17.14-2.79C183.14,126.55,182.74,124.92,182.4,123.83Zm89.94-59.22a37.73,37.73,0,0,0-3.71,3.63,41,41,0,0,0-7.27,15.31c-1.51,5.58-2.8,11.23-1.85,17.07.79,4.83,4.51,6.33,8.5,3.5a17.69,17.69,0,0,0,2.38-2.12c4-4.09,6.08-9.21,7.77-14.51s2.81-10.58,2-16.12A3.58,3.58,0,0,0,279,69.18C277,67.68,274.93,66.37,272.34,64.61Z"/><path class="cls-13" d="M193.15,201.34c5.39-9.91,13.8-12.71,19.37-5.83a90.39,90.39,0,0,1,6.29-7.28A10.55,10.55,0,0,1,230.64,186c3.86,1.54,5.62,4.77,6,8.73a22.58,22.58,0,0,1-.22,6.57c-1.19,5.56-2.77,11-4,16.57a82.59,82.59,0,0,0-1.52,9.64,3.36,3.36,0,0,0,1.26,2.64,2.77,2.77,0,0,0,2.56-.66,84.84,84.84,0,0,0,7.56-9.3c6.65-10.17,9.36-21.8,11.85-33.48a10.59,10.59,0,0,0,0-2.92,4.17,4.17,0,0,1,3.52-4.57c2.16-.36,4.52,1.05,4.7,3.28a26.05,26.05,0,0,1-.36,7.43c-1.65,7.94-3.65,15.81-5.29,23.75a16,16,0,0,0,.16,6.09c.49,2.62,2.58,3.45,4.49,1.63a39,39,0,0,0,6.3-7.68,82.62,82.62,0,0,0,10.58-27c1.13-5.65,2.86-11.17,4.3-16.74.3-1.15.54-2.31,1-4.13-2.41,1.22-4.27,2.15-6.12,3.12-.46.24-.82.8-1.29.89a27.82,27.82,0,0,1-3.17.22c.14-1.1-.13-2.74.49-3.2a51.62,51.62,0,0,1,9-5.63,5.42,5.42,0,0,0,3.55-4.67c.44-3.31,1-6.61,1.41-9.92.33-2.51,1.88-4.15,4-4.1a4.12,4.12,0,0,1,4.11,4.29c0,2.64-.37,5.28-.62,8.44,1.17-1.11,2.11-2,3-2.88,2-1.95,4.5-2.29,6.08-.8s1.21,4.17-.52,6.18c-2.47,2.87-5.74,4.39-9.21,5.63a2.85,2.85,0,0,0-1.71,1.45c-2.71,10.5-5.47,21-7.87,31.56-.94,4.11-1,8.42-1.44,12.64a7,7,0,0,0,.15,2.71c.34,1.11.76,2.68,1.57,3s2.31-.47,3.12-1.21c4.05-3.7,6.49-8.53,9-13.29,5.11-9.59,7.15-20.14,9.37-30.58,2.13-10,3.67-20.13,5.45-30.21.44-2.47,2.07-3.89,4.37-3.7,2.5.2,4.08,1.75,3.75,4.42-.74,6.09-1.74,12.15-2.73,18.21-.5,3.07-1.22,6.1-1.82,9.15-.14.72-.21,1.44-.31,2.16l.56.23a20.29,20.29,0,0,1,1.5-2.55c2.29-2.89,4.26-6.19,7.06-8.48,5.74-4.71,13-1.91,14.21,5.48A32.81,32.81,0,0,1,338,175.7c-1.22,6.16-3.14,12.19-4.71,18.28a12.53,12.53,0,0,0-.61,4c.1,1.16.58,2.82,1.4,3.22a3.61,3.61,0,0,0,3.35-.9,82.22,82.22,0,0,0,7.67-11c2.51-4.57,4.34-9.51,6.47-14.29.12-.28.15-.67.36-.82,1-.76,2.23-2.17,3.1-2,1.61.33,1.07,2,.73,3.26-2.32,8.5-4.6,17-9.24,24.64a30.69,30.69,0,0,1-6.35,7.62c-5.39,4.45-13.32,1.59-15.18-5.16-1.28-4.66-.3-9.19.81-13.7,1.48-6,3.1-12,4.5-18.1.48-2.08,1.29-4.78-1.27-5.89-2.34-1-3.82,1.33-5.14,2.86a57.57,57.57,0,0,0-10,17.53c-3.75,10-7.07,20.17-10.47,30.3-.69,2-1.2,4-3.76,4.23s-4-1-5-3.41c-3.25,3.42-5.94,7.61-11.4,6.82s-7.1-5.08-8.43-9.84c-1.58,3.07-2.87,6-4.56,8.72a28.22,28.22,0,0,1-4.87,5.95c-5,4.47-12.22,3-15.44-2.88-.46-.84-.83-1.72-1.22-2.52-2.18,3.57-4.15,7.23-6.56,10.58-2.7,3.78-6.41,6.13-11.31,5.37s-8-4.7-8.42-10c-.37-5.09.87-9.94,2.11-14.8s2.45-9.86,3.57-14.82a12.33,12.33,0,0,0,.24-4.06c-.12-1-.55-2.54-1.27-2.84a3.23,3.23,0,0,0-2.9,1,48.38,48.38,0,0,0-5.19,8.22c-4.84,10.63-7.47,21.94-9.57,33.38-.49,2.61-.93,5.23-1.38,7.84-.47,2.76-2.39,4.26-4.92,3.84s-3.84-2.35-3.28-5.06c1.87-9.14,3.95-18.23,5.76-27.38a65.33,65.33,0,0,0,1.24-10.79c0-1.35-.86-3.47-1.9-3.91a4.87,4.87,0,0,0-4.49.82,40.28,40.28,0,0,0-6.4,9.24c-4.76,10.25-7.11,21.25-9.31,32.28-.51,2.52-1,5.06-1.42,7.6s-2.41,4.15-4.54,3.84a4.14,4.14,0,0,1-3.68-5.25c1.69-8.79,3.44-17.56,5.18-26.34q2.17-11,4.37-21.88c.54-2.73,1.91-4.2,3.95-4.23,2.2,0,3.43,1.18,4.1,4C192.88,200,193,200.5,193.15,201.34Z"/><path class="cls-13" d="M128.5,209.14a43.9,43.9,0,0,0-15.79,5c-16.83,9.29-22.91,24.23-22.22,42.65.09,2.58-.27,4.81-2.43,6.49a6.29,6.29,0,0,1-6.62,1.09c-2.37-1-3.3-3-3.43-5.45a50.12,50.12,0,0,1,6.47-27.79c7.16-12.8,17.27-22.46,31.28-27.48a111.23,111.23,0,0,1,10.78-2.76c1.07-.26,2-.31,2.45-1.8,3.31-11.2,15.79-18.26,27.39-15.64,6.35,1.44,11.94,4.05,15.15,10.18a13.76,13.76,0,0,1-6.48,19,12.47,12.47,0,0,1-9.77-.17A50.47,50.47,0,0,0,139,208.64a2.33,2.33,0,0,0-1.58.61c1.58,1.5,3,3.36,4.79,4.41,3.81,2.16,7.88,3.88,11.83,5.8,14.57,7.09,20.08,24.54,17.52,37.55-3.18,16.13-15.15,28.36-30.49,30.86-16.88,2.75-34-6.55-40.09-21.8-6.77-16.95-1.47-35.41,13.08-45.21a27,27,0,0,1,6.49-3.2,6.28,6.28,0,0,1,7.79,4.17A5.57,5.57,0,0,1,124,229c-18.11,3.57-23.56,26.9-10.4,41.42a28.9,28.9,0,0,0,47.24-6.19c6.46-12.47,1.35-28.14-11.54-35.18-2.46-1.34-5.11-2.32-7.66-3.49C134.1,222.08,130.76,218,128.5,209.14Zm9-9.19a28.72,28.72,0,0,1,3.77.42c5.95,1.43,11.88,2.94,17.82,4.4,3.27.81,5.57-.92,5.58-4.3,0-3.55-2.16-5.74-5-7.25a17.76,17.76,0,0,0-12.18-1.55A13.1,13.1,0,0,0,137.53,200Z"/><path class="cls-13" d="M144.12,78.27a33.54,33.54,0,0,0-16.05,5.92c-15.62,10.76-19.58,33-8.53,48.18.62.86,1.34,1.65,2,2.47,2.55,3.09,2.61,6.11.15,8.57s-7.28,3-9.52.43a36.5,36.5,0,0,1-6.47-9.77c-6.26-15-4.42-29.62,3.89-43.35,6.29-10.37,15.15-17.87,27.17-20.66,4.72-1.1,9.75-1.15,14.64-1.19,3.46,0,5.6,4.56,3.27,7.12-7.21,7.9-9.36,17.73-11,27.71-1.71,10.4-2.9,20.89-4.47,31.31-1.43,9.46-3.26,18.84-7.29,27.63-4.64,10.11-12.18,16.89-23.18,19-10.35,2-20.62-3.41-24.75-14.46-4.84-13,.8-25.34,11.39-33.17a4.67,4.67,0,0,1,6.51,1,4.78,4.78,0,0,1-.91,6.52c-3.87,3.2-7,6.86-8.6,11.77-2.55,8.07,2.06,17.32,9.6,18.88,5.5,1.13,10.15-1.06,14.38-4.27,5.38-4.07,7.7-10,9.56-16.18,3.52-11.6,4.61-23.64,6.31-35.57,1.49-10.38,3.13-20.73,7.69-30.32C141.09,83.36,142.56,81.06,144.12,78.27Z"/><path class="cls-13" d="M147.69,165.24c-.45-.48-1.37-1-1.6-1.79-.44-1.43.52-2.19,1.86-2.59,5.1-1.49,10.18-3,15.27-4.54q30.65-9.1,61.3-18.21l44.72-13.27,60-17.86c7.26-2.16,14.51-4.39,21.81-6.44a4.21,4.21,0,0,1,3.39.64c1.08,1,.16,2.61-1.64,3.14q-13.08,3.92-26.17,7.8l-56.49,16.81-48.86,14.5Q193.45,151.7,165.64,160l-16.13,4.81C149.07,164.93,148.63,165,147.69,165.24Z"/><path class="cls-13" d="M131.82,302.26c-15.28-.57-28-7.85-36.08-22.87-.7-1.3-1.26-2.68.36-3.55s2.56.12,3.34,1.63c7.85,15.25,24.77,23.39,40.95,19.74a35.92,35.92,0,0,0,18.27-10.06c.21-.21.44-.41.65-.64,1-1.1,2.24-1.88,3.49-.54s.47,2.49-.58,3.58C154.32,297.66,144.68,301.79,131.82,302.26Z"/><path class="cls-13" d="M336.69,223.26c-5.84-.11-10.21-2.58-13.9-6.46-1.21-1.27-1-2.45.21-3.55s2.29-.94,3.36.19A18.93,18.93,0,0,0,328,215c6.16,5.12,13,4.86,18.78-.73,4.3-4.13,7.05-9.27,9.29-14.69,1.38-3.35,2.42-6.85,3.61-10.28a5.41,5.41,0,0,1,.37-1.07c.85-1.47,1.8-3.08,3.81-2.43s1.42,2.41,1,3.84c-3.1,10.14-6.76,20-14.71,27.54C346.33,220.81,341.81,223.14,336.69,223.26Z"/><path class="cls-13" d="M261.25,161.23a5.37,5.37,0,1,1-.08,10.73,5.25,5.25,0,0,1-5.28-5.39A5.34,5.34,0,0,1,261.25,161.23Z"/><path class="cls-13" d="M366.84,179c.08,1.86-1.79,3.93-3,3.65-.8-.18-1.42-1.18-2.12-1.81a20.26,20.26,0,0,1,3.17-3C365.17,177.62,366.35,178.73,366.84,179Z"/><path class="cls-13" d="M96.66,270.39c-1.3,1-2.09,2-2.79,2s-2-1.15-2-1.8a2.72,2.72,0,0,1,1.82-2C94.41,268.46,95.28,269.48,96.66,270.39Z"/><path class="cls-13" d="M363.42,99.68c-1.35,1-2.12,2-2.8,2s-1.43-1.13-2.13-1.76c.65-.69,1.22-1.8,2-1.94S362,98.81,363.42,99.68Z"/></g></g></svg>