<svg id="a27ec9ad-4459-45e2-8833-cb5ced0b7370" data-name="Layer 1" xmlns="http://www.w3.org/2000/svg" viewBox="0 0 150 150"><defs><style>.aaf7e768-25ee-4052-9800-239438bd9642{fill:#583d72}.e5ca5cc2-1944-4dd0-bc56-36df1e953dc4{fill:#9f5f80}</style></defs><path d="M135.87 113.05a.49.49 0 0 1-.05.77.36.36 0 0 1-.24.08.39.39 0 0 1-.22-.13.47.47 0 0 1 0-.67.51.51 0 0 1 .26-.17c.08-.01.16.07.25.12Z" style="fill:#fff"/><circle cx="75" cy="75" r="75" style="fill:#eee"/><path class="aaf7e768-25ee-4052-9800-239438bd9642" d="M61.47 61.84C60.69 63.29 60 64.9 59 66.37a6 6 0 0 1-2.17 2c-2.61 1.35-5.59-.27-6.27-3.29a12.43 12.43 0 0 1 .13-5.43 21.83 21.83 0 0 1 5.08-10c1.64-1.8 3.54-3.25 6.09-3.33a9.21 9.21 0 0 1 3 .54 1.26 1.26 0 0 1 .78 1.68c-.26.62-.86.83-1.7.52a3.71 3.71 0 0 0-3.9 1A17.77 17.77 0 0 0 55 57.72a30.3 30.3 0 0 0-1.17 4.64 5 5 0 0 0 .08 1.89c.23 1.12 1.13 1.48 1.95.71a11.85 11.85 0 0 0 2-2.5 36.18 36.18 0 0 0 3.85-9.85 1.66 1.66 0 0 1 2.31-1.32 1.7 1.7 0 0 1 1 2.08c-.33 2.13-.68 4.25-.9 6.39a6.46 6.46 0 0 0 .38 2.18c.14.58.56.69 1 .31a6.74 6.74 0 0 0 1.29-1.38 29.78 29.78 0 0 0 3.81-8.7 18.35 18.35 0 0 1 4.23-8.52 5.73 5.73 0 0 1 4.74-1.95 4.51 4.51 0 0 1 3.87 5.6 7.22 7.22 0 0 1-.75 2 1.59 1.59 0 0 1-2.12.52 1.74 1.74 0 0 1-.89-2.09 7.67 7.67 0 0 0 .52-1.9 1.55 1.55 0 0 0-.54-1.25 1.48 1.48 0 0 0-1.36.15 7.51 7.51 0 0 0-1.73 1.87 18.59 18.59 0 0 0-2.92 8.63 8.52 8.52 0 0 0 .39 3 2 2 0 0 0 2.73 1.41 10.23 10.23 0 0 0 4.78-3.32 22.11 22.11 0 0 0 5.25-9.22 14.58 14.58 0 0 1 7.81-10 3.5 3.5 0 0 1 3.1.41 3.09 3.09 0 0 1 1.09.87 1.54 1.54 0 0 0 1.64.69c1.24-.22 2.49-.43 3.71-.73a1.26 1.26 0 0 0 .77-.74c.74-2.92 1.46-5.85 2.12-8.79a15.39 15.39 0 0 0 .18-2.55 1.73 1.73 0 0 1 1.66-1.82 1.71 1.71 0 0 1 1.77 1.85c.11 3.2-.8 6.23-1.57 9.28-.89 3.54-1.79 7.07-2.61 10.62a7.92 7.92 0 0 0-.09 2.48c.15 1.64 1.39 2.16 2.69 1.14a10.15 10.15 0 0 0 2.93-4.06 16.19 16.19 0 0 0 1.45-7.09c0-1.17-.31-2.17-1.61-2.57a3.62 3.62 0 0 1-1-.67 1.72 1.72 0 0 1 1.16-3.09 17.08 17.08 0 0 1 2.61 1 8.83 8.83 0 0 0 1.65.65 8.27 8.27 0 0 0 5-.48 9.82 9.82 0 0 0 1.74-1.28c.41-.34.78-.74 1.29-.32a1 1 0 0 1 .13 1.49 7.81 7.81 0 0 1-1.65 1.6 13.11 13.11 0 0 1-6.09 2.19c0 1.19.07 2.37 0 3.54a19.07 19.07 0 0 1-3.42 9.74 7.16 7.16 0 0 1-4.64 3.24 4.82 4.82 0 0 1-5.44-3.43c-.68-2.36-.2-4.66.25-7 .15-.73.36-1.45.55-2.23l-4.12 1.18c0 .25.06.54.08.83.3 4.68-.6 9-3.56 12.79a7 7 0 0 1-3.31 2.42 5 5 0 0 1-6.79-3.69c0-.16-.08-.32-.15-.66-.41.7-.74 1.28-1.09 1.85a17.09 17.09 0 0 1-5.54 6.07c-2.12 1.27-4.4 1.87-6.62.31a14.67 14.67 0 0 1-2.24-2.46 23.06 23.06 0 0 1-.88 2.17 16.63 16.63 0 0 1-1.55 2.53c-1.57 2-4.78 2.65-6.25-1-.22-.54-.37-1.14-.49-1.54Zm32.77-21.57a13.74 13.74 0 0 0-1.36 1.32 15.12 15.12 0 0 0-2.65 5.58 14.73 14.73 0 0 0-.67 6.22c.29 1.76 1.65 2.31 3.1 1.27a5.71 5.71 0 0 0 .86-.77 13 13 0 0 0 2.84-5.29 12.87 12.87 0 0 0 .72-5.87 1.32 1.32 0 0 0-.43-.8c-.71-.54-1.47-1.02-2.41-1.66ZM65.38 90.09c2-3.61 5-4.64 7.06-2.13a32 32 0 0 1 2.29-2.65 3.84 3.84 0 0 1 4.27-.82 3.46 3.46 0 0 1 2.17 3.18 8 8 0 0 1-.08 2.39c-.43 2-1 4-1.46 6a30.11 30.11 0 0 0-.55 3.51 1.21 1.21 0 0 0 .45 1 1 1 0 0 0 .94-.25A30.52 30.52 0 0 0 83.26 97c2.42-3.71 3.41-8 4.32-12.2a4.27 4.27 0 0 0 0-1.07A1.51 1.51 0 0 1 88.85 82a1.44 1.44 0 0 1 1.71 1.2 9.41 9.41 0 0 1-.13 2.7c-.6 2.89-1.33 5.76-1.93 8.65a6.15 6.15 0 0 0 .06 2.22c.18 1 .94 1.26 1.64.6a14.36 14.36 0 0 0 2.3-2.8 30.28 30.28 0 0 0 3.85-9.83c.41-2.05 1-4.07 1.57-6.1.11-.42.19-.84.35-1.5-.88.44-1.56.78-2.23 1.13-.17.09-.3.3-.47.33a8.89 8.89 0 0 1-1.15.08c0-.4 0-1 .17-1.17a19.25 19.25 0 0 1 3.27-2 2 2 0 0 0 1.29-1.7c.16-1.21.36-2.41.51-3.61.12-.92.69-1.52 1.46-1.5a1.5 1.5 0 0 1 1.5 1.56c0 1-.13 1.93-.22 3.08l1.1-1a1.58 1.58 0 0 1 2.21-.29 1.68 1.68 0 0 1-.19 2.25 7.43 7.43 0 0 1-3.35 2c-.25.09-.57.31-.62.53-1 3.83-2 7.65-2.87 11.5a37.16 37.16 0 0 0-.53 4.61 2.48 2.48 0 0 0 .06 1c.12.41.27 1 .57 1.1s.84-.17 1.14-.44a17.13 17.13 0 0 0 3.29-4.84c1.86-3.49 2.6-7.34 3.41-11.14.78-3.65 1.34-7.34 2-11a1.45 1.45 0 0 1 1.59-1.35 1.35 1.35 0 0 1 1.37 1.61c-.27 2.22-.64 4.43-1 6.64-.18 1.12-.44 2.22-.66 3.33 0 .26-.07.53-.11.79l.2.08a7.84 7.84 0 0 1 .55-.93 18.75 18.75 0 0 1 2.57-3.08 3.06 3.06 0 0 1 5.18 2 12 12 0 0 1-.14 4.1c-.45 2.25-1.15 4.44-1.72 6.67a4.58 4.58 0 0 0-.22 1.46c0 .42.21 1 .51 1.18a1.33 1.33 0 0 0 1.22-.33 31.14 31.14 0 0 0 2.8-4c.91-1.67 1.58-3.47 2.35-5.21.05-.1.06-.24.14-.3.37-.27.81-.79 1.12-.73.59.12.39.74.27 1.19a34.15 34.15 0 0 1-3.37 9 11.26 11.26 0 0 1-2.27 2.7 3.46 3.46 0 0 1-5.53-1.89 9.68 9.68 0 0 1 .29-5c.54-2.2 1.13-4.39 1.64-6.6.18-.76.47-1.74-.46-2.15s-1.39.49-1.87 1.05a20.88 20.88 0 0 0-3.64 6.38c-1.37 3.65-2.58 7.35-3.82 11-.25.74-.44 1.44-1.37 1.55a1.66 1.66 0 0 1-1.81-1.25c-1.18 1.25-2.16 2.77-4.15 2.49s-2.59-1.86-3.07-3.59c-.58 1.12-1 2.19-1.66 3.18a10.62 10.62 0 0 1-1.78 2.17 3.57 3.57 0 0 1-5.62-1c-.17-.31-.31-.63-.45-.92-.79 1.3-1.51 2.63-2.39 3.85a4.1 4.1 0 0 1-4.12 2 3.7 3.7 0 0 1-3.07-3.62 17 17 0 0 1 .77-5.4q.69-2.68 1.3-5.4a4.32 4.32 0 0 0 .09-1.48c0-.37-.2-.92-.46-1a1.19 1.19 0 0 0-1.06.38 17.7 17.7 0 0 0-1.89 3 52 52 0 0 0-3.49 12.16c-.17 1-.34 1.91-.5 2.86a1.51 1.51 0 0 1-1.79 1.4 1.44 1.44 0 0 1-1.2-1.85c.69-3.32 1.44-6.64 2.1-10a23.66 23.66 0 0 0 .45-3.93 1.76 1.76 0 0 0-.69-1.43 1.81 1.81 0 0 0-1.63.3 14.64 14.64 0 0 0-2.39 3.3 51.45 51.45 0 0 0-3.39 11.76c-.18.92-.35 1.85-.52 2.77a1.54 1.54 0 0 1-1.65 1.4 1.5 1.5 0 0 1-1.34-1.91c.61-3.2 1.25-6.4 1.89-9.6.52-2.66 1.06-5.31 1.59-8 .2-1 .7-1.53 1.44-1.55s1.25.43 1.49 1.47c.04.25.08.44.14.75Zm-23.55 2.84a16.1 16.1 0 0 0-5.76 1.81c-6.13 3.39-8.34 8.83-8.09 15.54a2.58 2.58 0 0 1-.89 2.37 2.3 2.3 0 0 1-2.41.4 2.08 2.08 0 0 1-1.25-2 18.36 18.36 0 0 1 2.36-10.13 21 21 0 0 1 11.4-10 39.47 39.47 0 0 1 3.92-1c.39-.1.73-.12.9-.66a8.58 8.58 0 0 1 10-5.69c2.31.52 4.34 1.47 5.51 3.7a5 5 0 0 1-2.36 6.93 4.52 4.52 0 0 1-3.55-.07 18.78 18.78 0 0 0-6-1.39.93.93 0 0 0-.58.23 10.51 10.51 0 0 0 1.75 1.6c1.39.79 2.87 1.42 4.31 2.12 5.31 2.58 7.32 8.94 6.38 13.68a13.78 13.78 0 0 1-11.11 11.24 13.47 13.47 0 0 1-9.81-24.41 9.87 9.87 0 0 1 2.37-1.2 2.28 2.28 0 0 1 2.83 1.52 2 2 0 0 1-1.57 2.6c-6.6 1.3-8.58 9.8-3.79 15.09A10.52 10.52 0 0 0 53.6 113a9.64 9.64 0 0 0-4.2-12.81c-.9-.49-1.86-.85-2.79-1.27-2.74-1.28-3.96-2.78-4.78-5.99Zm3.29-3.35a10.63 10.63 0 0 1 1.37.15c2.17.52 4.33 1.07 6.49 1.61a1.51 1.51 0 0 0 2-1.57 2.92 2.92 0 0 0-1.84-2.64 6.51 6.51 0 0 0-4.44-.57 4.77 4.77 0 0 0-3.58 3.02Zm2.4-44.33a12.17 12.17 0 0 0-5.85 2.15A12.61 12.61 0 0 0 38.56 65c.23.31.49.6.74.9a2.12 2.12 0 0 1 .05 3.1 2.54 2.54 0 0 1-3.46.16 13.21 13.21 0 0 1-2.36-3.56c-2.28-5.48-1.61-10.8 1.42-15.8a15.53 15.53 0 0 1 9.89-7.53 24.43 24.43 0 0 1 5.34-.43 1.61 1.61 0 0 1 1.19 2.59c-2.63 2.88-3.41 6.46-4 10.1s-1 7.61-1.63 11.41A37.44 37.44 0 0 1 43.08 76a11.35 11.35 0 0 1-8.45 6.91 7.91 7.91 0 0 1-9-5.27c-1.77-4.74.29-9.23 4.14-12.09a1.71 1.71 0 0 1 2 2.74 9.2 9.2 0 0 0-3.13 4.29c-.93 2.94.75 6.31 3.5 6.88a6.36 6.36 0 0 0 5.24-1.56c2-1.48 2.8-3.65 3.48-5.89 1.28-4.23 1.68-8.61 2.3-13A37.74 37.74 0 0 1 46 48c.42-.9 1-1.74 1.52-2.75Zm1.3 31.68c-.16-.17-.5-.37-.58-.65-.16-.52.19-.8.68-.94l5.56-1.66 22.33-6.63 16.3-4.84 21.89-6.5c2.65-.79 5.29-1.61 8-2.35a1.55 1.55 0 0 1 1.23.23c.4.36.06.95-.59 1.15L114 57.58 93.43 63.7 75.62 69l-20.26 6-5.88 1.75c-.16.07-.32.1-.66.18Z"/><path class="aaf7e768-25ee-4052-9800-239438bd9642" d="M43 126.85a14.86 14.86 0 0 1-13.15-8.33c-.25-.47-.46-1 .13-1.29s.94 0 1.22.59A13.57 13.57 0 0 0 46.16 125a13.1 13.1 0 0 0 6.66-3.67c.07-.08.16-.15.23-.23.38-.4.82-.69 1.28-.2s.17.91-.22 1.3A15.28 15.28 0 0 1 43 126.85Zm74.68-28.78a6.9 6.9 0 0 1-5.06-2.35.81.81 0 0 1 .07-1.3.78.78 0 0 1 1.23.07 8.22 8.22 0 0 0 .61.57 4.73 4.73 0 0 0 6.84-.27 15.36 15.36 0 0 0 3.39-5.35c.5-1.22.88-2.5 1.31-3.75a2.58 2.58 0 0 1 .14-.39c.31-.53.65-1.12 1.39-.88s.51.88.35 1.39c-1.13 3.7-2.46 7.3-5.36 10a7.32 7.32 0 0 1-4.91 2.26Zm-27.49-22.6a2 2 0 1 1 0 3.91 1.91 1.91 0 0 1-1.93-2 2 2 0 0 1 1.93-1.91ZM128.67 82c0 .68-.65 1.43-1.11 1.33-.29-.06-.52-.43-.77-.66a7.53 7.53 0 0 1 1.15-1.11c.12-.12.55.29.73.44Zm-98.44 33.24c-.48.36-.76.75-1 .73s-.72-.42-.72-.66a1 1 0 0 1 .66-.73c.24-.04.55.33 1.06.66Zm97.19-62.19c-.49.37-.77.74-1 .72s-.52-.41-.78-.64c.24-.25.45-.66.72-.71s.54.31 1.06.63Z"/><path class="e5ca5cc2-1944-4dd0-bc56-36df1e953dc4" d="M59.4 60.53c-.78 1.45-1.51 3.06-2.47 4.52a6.06 6.06 0 0 1-2.17 2c-2.61 1.34-5.59-.28-6.26-3.3a12.14 12.14 0 0 1 .13-5.43 21.73 21.73 0 0 1 5.08-10c1.63-1.79 3.53-3.25 6.08-3.33a9.16 9.16 0 0 1 3.05.54 1.27 1.27 0 0 1 .78 1.69c-.26.61-.85.82-1.7.51a3.69 3.69 0 0 0-3.89 1 17.7 17.7 0 0 0-5.09 7.75A31.83 31.83 0 0 0 51.77 61a4.83 4.83 0 0 0 .09 1.89c.22 1.12 1.12 1.48 2 .71a11.86 11.86 0 0 0 2-2.5 36.18 36.18 0 0 0 3.85-9.85A1.67 1.67 0 0 1 62 50a1.71 1.71 0 0 1 1 2.06c-.34 2.12-.69 4.24-.91 6.38a6.78 6.78 0 0 0 .38 2.19c.14.57.57.68 1 .31a7 7 0 0 0 1.28-1.39 29.66 29.66 0 0 0 3.81-8.7 18.54 18.54 0 0 1 4.23-8.52 5.73 5.73 0 0 1 4.74-1.95 4.51 4.51 0 0 1 3.9 5.62 7.22 7.22 0 0 1-.75 2 1.57 1.57 0 0 1-2.11.52 1.73 1.73 0 0 1-.89-2.09 8.11 8.11 0 0 0 .51-1.9 1.56 1.56 0 0 0-.54-1.25 1.5 1.5 0 0 0-1.36.15 7.46 7.46 0 0 0-1.72 1.87 18.64 18.64 0 0 0-2.93 8.63 8.85 8.85 0 0 0 .39 3 2 2 0 0 0 2.74 1.4A10.09 10.09 0 0 0 79.54 55a22.24 22.24 0 0 0 5.2-9.22 15 15 0 0 1 5.1-8.25 14.75 14.75 0 0 1 2.7-1.73 3.51 3.51 0 0 1 3.1.42 2.88 2.88 0 0 1 1.09.86 1.54 1.54 0 0 0 1.64.69c1.24-.21 2.49-.43 3.71-.73a1.26 1.26 0 0 0 .77-.74c.75-2.92 1.47-5.84 2.12-8.78a16.78 16.78 0 0 0 .19-2.56 1.72 1.72 0 1 1 3.43 0c.11 3.2-.8 6.23-1.58 9.28-.89 3.54-1.79 7.07-2.61 10.62a8.23 8.23 0 0 0-.09 2.48c.15 1.64 1.39 2.16 2.69 1.14a10 10 0 0 0 2.91-4.08 16.31 16.31 0 0 0 1.46-7.09c-.05-1.17-.32-2.17-1.62-2.57a3.62 3.62 0 0 1-1-.67 1.64 1.64 0 0 1-.6-1.92A1.61 1.61 0 0 1 109.9 31a18.21 18.21 0 0 1 2.61 1 8.83 8.83 0 0 0 1.65.65 8.27 8.27 0 0 0 5-.48A9.82 9.82 0 0 0 121 30.9c.41-.33.78-.74 1.29-.32a1 1 0 0 1 .14 1.5 8.12 8.12 0 0 1-1.66 1.6 13.17 13.17 0 0 1-6.09 2.18c0 1.19.08 2.37 0 3.54a19 19 0 0 1-3.42 9.74 7.21 7.21 0 0 1-4.63 3.25 4.84 4.84 0 0 1-5.52-3.39c-.68-2.36-.2-4.66.25-7 .15-.73.36-1.45.55-2.23l-4.12 1.18c0 .25.06.54.08.83.3 4.68-.6 9-3.56 12.8A7 7 0 0 1 91 57a5 5 0 0 1-6.8-3.69c0-.16-.07-.32-.15-.66-.41.7-.74 1.28-1.09 1.85a17.09 17.09 0 0 1-5.54 6.07c-2.11 1.28-4.4 1.87-6.62.31a15.11 15.11 0 0 1-2.24-2.46 23.06 23.06 0 0 1-.88 2.17 15.17 15.17 0 0 1-1.55 2.53c-1.57 2-4.78 2.65-6.25-1-.21-.6-.36-1.2-.48-1.59ZM92.17 39a15 15 0 0 0-1.35 1.32 15 15 0 0 0-2.65 5.58 14.74 14.74 0 0 0-.68 6.22c.29 1.76 1.65 2.31 3.1 1.27a6.31 6.31 0 0 0 .87-.77 13 13 0 0 0 2.83-5.29 13 13 0 0 0 .71-5.92 1.41 1.41 0 0 0-.44-.8c-.69-.54-1.45-1.02-2.39-1.61ZM63.32 88.77c2-3.61 5-4.64 7.05-2.13.76-.88 1.45-1.85 2.29-2.65a3.86 3.86 0 0 1 4.34-.82 3.49 3.49 0 0 1 2.17 3.18 8.31 8.31 0 0 1-.08 2.39c-.44 2-1 4-1.47 6a30.11 30.11 0 0 0-.55 3.51 1.21 1.21 0 0 0 .46 1 1 1 0 0 0 .93-.24 31.59 31.59 0 0 0 2.75-3.39c2.43-3.71 3.41-7.95 4.32-12.2a4.18 4.18 0 0 0 0-1.06 1.53 1.53 0 0 1 1.28-1.67 1.45 1.45 0 0 1 1.72 1.2 9.4 9.4 0 0 1-.14 2.7c-.6 2.9-1.32 5.76-1.92 8.66a5.88 5.88 0 0 0 0 2.21c.19 1 1 1.26 1.64.6a14.36 14.36 0 0 0 2.3-2.8 29.83 29.83 0 0 0 3.85-9.83c.41-2 1-4.06 1.57-6.1.11-.41.2-.84.35-1.5-.88.44-1.55.78-2.23 1.14-.17.08-.3.29-.47.32a8.89 8.89 0 0 1-1.15.08c.05-.4 0-1 .17-1.16a19.3 19.3 0 0 1 3.27-2.06 2 2 0 0 0 1.29-1.7c.16-1.2.36-2.41.52-3.61a1.51 1.51 0 0 1 1.46-1.5 1.49 1.49 0 0 1 1.49 1.57c0 1-.13 1.92-.22 3.07.42-.4.77-.72 1.1-1a1.59 1.59 0 0 1 2.22-.29 1.7 1.7 0 0 1-.19 2.25 7.46 7.46 0 0 1-3.36 2c-.24.09-.57.31-.62.53-1 3.83-2 7.65-2.87 11.5a39.17 39.17 0 0 0-.53 4.61 2.75 2.75 0 0 0 .06 1c.12.4.28 1 .57 1.09s.85-.17 1.14-.44a16.92 16.92 0 0 0 3.29-4.84c1.87-3.49 2.61-7.33 3.42-11.14.77-3.64 1.33-7.34 2-11a1.46 1.46 0 0 1 1.59-1.35 1.35 1.35 0 0 1 1.37 1.61c-.27 2.22-.63 4.43-1 6.64-.19 1.12-.45 2.22-.67 3.33 0 .26-.07.53-.11.79l.2.09a7.11 7.11 0 0 1 .55-.93 18.42 18.42 0 0 1 2.57-3.09 3.06 3.06 0 0 1 5.18 2 12.09 12.09 0 0 1-.14 4.11c-.44 2.24-1.14 4.44-1.72 6.66a4.62 4.62 0 0 0-.22 1.46c0 .43.22 1 .51 1.18a1.33 1.33 0 0 0 1.22-.33 29.53 29.53 0 0 0 2.8-4c.91-1.67 1.58-3.47 2.36-5.21 0-.1 0-.24.13-.3.37-.27.81-.79 1.13-.72.58.12.39.73.26 1.18a33.78 33.78 0 0 1-3.36 9 11.3 11.3 0 0 1-2.32 2.78 3.47 3.47 0 0 1-5.53-1.88 9.61 9.61 0 0 1 .3-5c.54-2.2 1.12-4.39 1.64-6.6.17-.76.47-1.74-.47-2.14s-1.39.48-1.87 1a21 21 0 0 0-3.64 6.38c-1.37 3.65-2.58 7.35-3.82 11-.25.74-.43 1.44-1.37 1.55a1.64 1.64 0 0 1-1.8-1.25c-1.19 1.25-2.17 2.78-4.16 2.49s-2.58-1.85-3.07-3.59c-.57 1.12-1 2.19-1.66 3.18a10.91 10.91 0 0 1-1.77 2.17 3.57 3.57 0 0 1-5.63-1c-.17-.31-.31-.63-.44-.92-.8 1.3-1.52 2.63-2.39 3.86a4.14 4.14 0 0 1-4.13 2A3.71 3.71 0 0 1 74 98.74a17 17 0 0 1 .77-5.4q.69-2.69 1.31-5.39a4.66 4.66 0 0 0 .08-1.49c0-.37-.2-.92-.46-1a1.19 1.19 0 0 0-1.06.38 18.35 18.35 0 0 0-1.89 3A52 52 0 0 0 69.26 101c-.17 1-.33 1.91-.5 2.86a1.5 1.5 0 0 1-1.79 1.4 1.43 1.43 0 0 1-1.2-1.84c.69-3.33 1.44-6.65 2.1-10a23.66 23.66 0 0 0 .45-3.93 1.74 1.74 0 0 0-.69-1.42 1.77 1.77 0 0 0-1.63.29 14.6 14.6 0 0 0-2.33 3.37 51.62 51.62 0 0 0-3.4 11.76c-.18.92-.35 1.85-.51 2.77a1.56 1.56 0 0 1-1.66 1.4 1.5 1.5 0 0 1-1.34-1.91q.93-4.8 1.89-9.6l1.59-8c.2-1 .7-1.53 1.44-1.54s1.25.43 1.49 1.47c.05.19.08.38.15.69Zm-23.56 2.84A15.87 15.87 0 0 0 34 93.43c-6.14 3.38-8.35 8.83-8.1 15.54a2.54 2.54 0 0 1-.89 2.36 2.27 2.27 0 0 1-2.41.4 2.08 2.08 0 0 1-1.25-2 18.3 18.3 0 0 1 2.36-10.12 21 21 0 0 1 11.4-10 39.5 39.5 0 0 1 3.92-1c.4-.1.74-.11.9-.66a8.59 8.59 0 0 1 10-5.69c2.31.52 4.35 1.47 5.52 3.7a5 5 0 0 1-2.36 6.93 4.54 4.54 0 0 1-3.56-.07 18.5 18.5 0 0 0-6-1.38.86.86 0 0 0-.58.22 10.51 10.51 0 0 0 1.75 1.6c1.39.79 2.87 1.42 4.31 2.12 5.31 2.58 7.32 8.94 6.38 13.68a13.77 13.77 0 0 1-11.1 11.24 13.48 13.48 0 0 1-9.85-24.41 10.06 10.06 0 0 1 2.37-1.17 2.3 2.3 0 0 1 2.84 1.52 2 2 0 0 1-1.58 2.6c-6.59 1.3-8.58 9.8-3.79 15.09a10.54 10.54 0 0 0 17.22-2.25 9.66 9.66 0 0 0-4.21-12.82c-.89-.49-1.86-.85-2.79-1.27-2.7-1.27-3.92-2.77-4.74-5.98Zm3.29-3.35a10.8 10.8 0 0 1 1.38.15c2.16.52 4.32 1.07 6.49 1.61a1.5 1.5 0 0 0 2-1.57 2.91 2.91 0 0 0-1.84-2.64 6.49 6.49 0 0 0-4.43-.57 4.8 4.8 0 0 0-3.6 3.02Zm2.4-44.33a12.23 12.23 0 0 0-5.84 2.15 12.6 12.6 0 0 0-3.11 17.56c.22.31.48.6.73.9a2.12 2.12 0 0 1 .06 3.12 2.54 2.54 0 0 1-3.47.16 13.7 13.7 0 0 1-2.36-3.56c-2.28-5.48-1.61-10.79 1.42-15.8a15.58 15.58 0 0 1 9.9-7.53 24.29 24.29 0 0 1 5.33-.43 1.61 1.61 0 0 1 1.19 2.6c-2.62 2.87-3.41 6.45-4 10.09s-1 7.61-1.63 11.41A37.07 37.07 0 0 1 41 74.67a11.35 11.35 0 0 1-8.44 6.91 7.92 7.92 0 0 1-9-5.27c-1.77-4.73.29-9.23 4.15-12.09a1.71 1.71 0 0 1 2.37.37 1.73 1.73 0 0 1-.34 2.41 9.22 9.22 0 0 0-3.14 4.29c-.93 2.94.75 6.31 3.5 6.88a6.36 6.36 0 0 0 5.24-1.55c2-1.49 2.81-3.66 3.48-5.9 1.28-4.22 1.68-8.61 2.3-13 .55-3.78 1.14-7.55 2.8-11 .43-.94.96-1.78 1.53-2.79Zm1.3 31.68c-.16-.17-.5-.37-.58-.65-.16-.52.19-.8.68-.94l5.56-1.65 22.33-6.64L91 60.89l21.85-6.5c2.65-.79 5.29-1.6 8-2.35a1.55 1.55 0 0 1 1.23.23c.4.36.06.95-.59 1.15l-9.54 2.84-20.59 6.12-17.8 5.29q-10.14 3-20.27 6l-5.88 1.75c-.15.08-.32.11-.66.19Z"/><path class="e5ca5cc2-1944-4dd0-bc56-36df1e953dc4" d="M41 125.54a14.89 14.89 0 0 1-13.15-8.33c-.25-.48-.45-1 .13-1.3s.94 0 1.22.59a13.57 13.57 0 0 0 14.92 7.2 13.1 13.1 0 0 0 6.63-3.7l.23-.23c.38-.4.82-.69 1.28-.2s.17.91-.21 1.3A15.35 15.35 0 0 1 41 125.54Zm74.61-28.79a6.88 6.88 0 0 1-5.06-2.35.8.8 0 0 1 .08-1.29.76.76 0 0 1 1.22.07 8.09 8.09 0 0 0 .61.56 4.75 4.75 0 0 0 6.85-.27 15.39 15.39 0 0 0 3.38-5.35c.5-1.22.88-2.5 1.31-3.75a2.58 2.58 0 0 1 .14-.39c.31-.53.65-1.12 1.39-.88s.51.88.36 1.4c-1.13 3.69-2.47 7.29-5.36 10a7.35 7.35 0 0 1-4.92 2.25Zm-27.48-22.6a2 2 0 0 1 2 2 2 2 0 0 1-2 1.89 1.9 1.9 0 0 1-1.92-2 2 2 0 0 1 1.92-1.89Zm38.47 6.49c0 .68-.65 1.43-1.11 1.33-.29-.06-.52-.43-.77-.66a7.53 7.53 0 0 1 1.15-1.11c.13-.07.55.33.73.44Zm-98.44 33.29c-.48.35-.76.74-1 .72a.7.7 0 0 1-.06-1.39c.24-.04.56.33 1.06.67Zm97.19-62.2c-.49.37-.77.75-1 .72s-.52-.41-.77-.64c.23-.25.44-.65.71-.7s.54.3 1.06.62Z"/></svg>